<?xml version="1.0" standalone="no"?>
<!DOCTYPE svg PUBLIC "-//W3C//DTD SVG 20010904//EN"
 "http://www.w3.org/TR/2001/REC-SVG-20010904/DTD/svg10.dtd">
<svg version="1.0" xmlns="http://www.w3.org/2000/svg"
 width="1280.000000pt" height="1112.000000pt" viewBox="0 0 1280.000000 1112.000000"
 preserveAspectRatio="xMidYMid meet">
<g transform="translate(0.000000,1112.000000) scale(0.100000,-0.100000)"
fill="#000000" stroke="none">
<path d="M5745 10964 c-105 -74 -195 -142 -201 -150 -6 -7 -14 -58 -18 -111
-27 -415 -50 -690 -58 -700 -6 -7 -55 -44 -109 -83 -59 -42 -99 -78 -99 -88 0
-9 -20 -305 -45 -656 -25 -352 -45 -651 -45 -665 0 -22 33 -52 200 -185 111
-88 204 -164 208 -170 4 -6 9 -506 12 -1110 l5 -1099 154 -94 c84 -52 154 -93
156 -91 2 2 8 332 14 733 25 1623 31 2020 41 2705 5 393 12 817 16 943 5 224
3 247 -26 212 -16 -19 -69 -20 -76 0 -6 15 12 459 22 553 4 34 10 52 17 49 7
-2 128 -183 270 -403 l259 -399 -6 -340 -6 -340 116 -115 115 -116 10 -1699
c5 -935 13 -1806 17 -1935 l7 -235 285 -147 c157 -80 286 -145 287 -144 2 1 8
367 14 812 6 445 15 813 19 818 5 5 19 2 32 -7 13 -9 205 -182 428 -385 l405
-368 -2 -415 c-2 -227 -6 -469 -9 -536 l-6 -123 -127 -40 c-155 -50 -591 -181
-841 -252 l-185 -53 -6 -640 c-8 -720 -22 -1099 -65 -1745 -43 -648 -126
-1448 -205 -1974 -10 -70 -19 -133 -19 -139 0 -23 567 9 851 49 216 29 531 96
558 118 8 6 41 67 74 136 616 1297 972 2667 1116 4290 26 290 47 657 38 666
-4 4 -77 -21 -164 -55 -369 -146 -870 -318 -896 -308 -13 5 -15 16 -12 54 3
26 12 239 20 473 8 234 17 455 20 491 l5 67 -506 463 c-278 255 -511 465 -518
467 -7 1 -110 -49 -228 -113 -119 -63 -223 -115 -231 -115 -18 0 -23 172 -39
1539 l-12 1023 -40 48 c-23 27 -86 97 -141 156 l-100 107 -8 296 c-4 163 -10
328 -13 368 l-6 72 -259 385 c-143 212 -263 386 -267 386 -4 0 -93 -61 -197
-136z"/>
<path d="M4435 8310 c-423 -253 -450 -272 -457 -302 -4 -18 -11 -296 -17 -618
-26 -1402 -33 -1676 -40 -1695 -6 -13 -104 -68 -285 -160 l-276 -140 0 -78 c0
-109 27 -539 50 -801 23 -249 23 -266 11 -266 -6 0 -338 157 -738 349 l-729
350 -114 -35 c-396 -121 -706 -169 -1090 -169 -283 0 -401 13 -608 65 -64 17
-120 30 -123 30 -14 0 98 -503 183 -825 201 -762 499 -1490 783 -1915 211
-315 422 -515 827 -783 436 -288 822 -499 1234 -675 174 -75 412 -164 425
-160 5 2 -19 48 -54 103 -783 1231 -1258 2563 -1437 4024 -24 199 -24 191 -3
191 14 0 1447 -674 1465 -689 4 -4 17 -81 28 -171 11 -91 23 -175 25 -188 4
-14 0 -25 -9 -28 -8 -3 -262 122 -579 285 -310 160 -567 291 -571 291 -3 0 -6
-31 -6 -68 l0 -69 583 -278 c320 -153 587 -283 594 -289 6 -6 21 -72 33 -146
193 -1187 533 -2265 982 -3117 l70 -133 51 -15 c215 -62 530 -111 840 -130 92
-6 97 -5 97 14 0 11 -15 86 -34 168 -255 1101 -418 2319 -491 3658 -30 563
-36 785 -42 1548 -3 427 -8 777 -10 777 -2 0 -39 -18 -82 -39 -97 -50 -103
-46 -96 63 3 45 10 261 15 481 6 220 15 549 20 730 26 922 31 1117 28 1120 -2
3 -206 -117 -453 -265z"/>
<path d="M11080 8163 c-294 -27 -469 -55 -708 -113 -157 -38 -498 -144 -515
-160 -5 -4 -2 -88 7 -186 51 -578 60 -797 60 -1424 0 -554 -8 -786 -43 -1190
-4 -52 -6 -98 -4 -102 2 -4 74 -49 161 -101 545 -325 991 -529 1425 -652 55
-16 101 -35 104 -42 8 -19 -20 -158 -79 -398 -228 -934 -627 -1834 -1195
-2699 -57 -87 -102 -160 -99 -163 2 -2 21 -1 42 3 48 8 88 49 206 210 443 608
816 1435 1112 2464 85 299 180 676 173 693 -3 8 -101 38 -247 77 -147 39 -244
69 -247 78 -3 7 9 97 26 200 50 296 83 577 113 947 18 219 18 1140 0 1375 -20
263 -60 643 -87 840 -15 101 -21 178 -16 183 5 5 37 -33 77 -90 493 -714 891
-1238 1240 -1631 l74 -83 0 -108 c0 -151 -17 -484 -36 -686 -81 -886 -305
-1741 -681 -2590 -155 -351 -453 -918 -612 -1165 -20 -31 -13 -27 90 51 70 53
81 67 161 200 702 1178 1110 2416 1188 3604 6 94 15 220 20 281 6 60 10 186
10 280 l-1 169 -140 160 c-330 376 -756 917 -1302 1658 l-87 117 -77 -2 c-43
0 -94 -3 -113 -5z"/>
<path d="M11660 7007 l0 -65 398 -455 c333 -383 398 -453 406 -437 4 10 4 29
0 43 -8 23 -756 940 -789 967 -13 11 -15 3 -15 -53z"/>
<path d="M11690 6425 l0 -60 183 -190 c100 -105 246 -257 325 -340 l142 -149
0 45 c-1 44 -2 46 -306 379 -168 184 -314 344 -324 355 -20 19 -20 19 -20 -40z"/>
<path d="M11690 5823 l0 -72 173 -135 c94 -75 175 -136 180 -136 4 0 7 12 7
28 0 22 -34 61 -180 207 l-180 180 0 -72z"/>
<path d="M11660 5382 c0 -54 3 -61 38 -95 21 -20 41 -37 45 -37 4 0 7 16 7 36
0 26 -12 52 -41 95 -23 32 -43 59 -45 59 -2 0 -4 -26 -4 -58z"/>
<path d="M5360 5255 c0 -28 50 -926 65 -1175 71 -1153 165 -2278 260 -3120 45
-396 108 -885 116 -907 5 -13 15 -23 24 -23 20 0 19 26 -5 257 -143 1365 -282
3336 -325 4598 -3 94 -8 202 -11 242 l-6 71 -54 36 c-61 41 -64 42 -64 21z"/>
<path d="M5814 4914 c4 -82 11 -239 16 -349 6 -110 21 -441 35 -735 75 -1611
195 -3766 211 -3792 3 -4 12 -8 20 -8 17 0 17 1 4 225 -23 408 -58 1282 -80
1960 -25 815 -60 2275 -60 2560 0 94 -4 175 -8 181 -4 5 -38 32 -76 59 l-69
49 7 -150z"/>
<path d="M6210 4753 c0 -38 5 -158 10 -268 39 -825 80 -2527 80 -3366 0 -212
3 -548 7 -747 6 -333 8 -362 23 -362 16 0 18 59 24 912 3 502 8 1569 11 2370
l6 1457 -70 36 c-39 19 -75 35 -81 35 -6 0 -10 -28 -10 -67z"/>
<path d="M6578 3860 c7 -1256 -26 -2757 -78 -3635 -14 -237 -15 -225 20 -225
l30 0 0 63 c0 34 4 179 10 322 5 143 14 395 20 560 6 165 15 424 20 575 5 151
19 538 30 860 23 655 36 1029 50 1420 5 146 13 371 16 500 l7 236 -59 47 c-32
26 -61 47 -64 47 -3 0 -4 -347 -2 -770z"/>
<path d="M9630 4550 c0 -6 -7 -77 -15 -158 -144 -1395 -516 -2671 -1135 -3891
-66 -129 -118 -236 -117 -237 1 -1 16 -4 32 -6 28 -3 33 2 99 117 599 1041
1008 2250 1191 3520 32 222 74 588 69 597 -5 8 -109 68 -118 68 -3 0 -6 -5 -6
-10z"/>
<path d="M10045 4329 c-2 -8 -20 -129 -40 -269 -133 -943 -276 -1513 -545
-2185 -172 -429 -408 -904 -676 -1361 -80 -137 -84 -147 -67 -160 10 -7 21
-14 25 -14 25 -1 334 533 496 857 444 887 733 1799 876 2772 14 91 28 198 32
237 7 78 14 65 -71 120 -20 13 -26 14 -30 3z"/>
<path d="M10426 4148 c-3 -7 -14 -85 -26 -173 -12 -88 -37 -243 -56 -345 -197
-1052 -595 -2030 -1236 -3034 -49 -76 -87 -140 -85 -143 3 -2 20 -6 38 -9 33
-5 35 -3 88 78 524 797 895 1604 1145 2489 89 312 173 685 221 978 19 115 21
110 -48 150 -28 17 -38 19 -41 9z"/>
<path d="M10745 3999 c-2 -8 -12 -57 -20 -109 -191 -1130 -718 -2395 -1354
-3250 -60 -80 -68 -96 -53 -102 49 -19 58 -12 161 134 645 925 1101 1985 1331
3101 38 187 38 202 3 215 -16 5 -36 13 -45 17 -11 4 -20 2 -23 -6z"/>
<path d="M11005 3898 c-2 -7 -18 -74 -35 -148 -260 -1146 -693 -2165 -1260
-2965 -99 -139 -111 -160 -89 -153 17 6 219 288 329 460 485 763 848 1614
1074 2525 65 258 63 246 28 272 -35 24 -41 26 -47 9z"/>
<path d="M2382 3813 l3 -67 190 -98 c602 -312 585 -304 595 -288 6 8 9 35 8
59 l-3 43 -385 209 c-212 115 -391 209 -398 209 -10 0 -12 -17 -10 -67z"/>
<path d="M11241 3813 c-5 -21 -19 -76 -31 -123 -40 -160 -129 -465 -190 -655
-279 -857 -671 -1633 -1128 -2233 l-24 -32 25 0 c31 0 73 54 263 335 395 584
702 1203 929 1867 95 278 235 769 235 825 0 16 -45 53 -64 53 -3 0 -10 -17
-15 -37z"/>
<path d="M2460 3407 l0 -75 283 -160 282 -160 3 50 c2 28 1 56 -2 63 -4 12
-514 337 -549 351 -15 5 -17 -2 -17 -69z"/>
</g>
</svg>
